<svg aria-hidden="true" style="position:absolute;width:0;height:0;overflow:hidden" xmlns="http://www.w3.org/2000/svg">
  <defs>
  <symbol id="icon-burger" viewBox="0 0 32 32">
    <path fill="#d8ff99" style="fill: var(--color2, #d8ff99)" d="M4 9c0-0.552 0.448-1 1-1h22c0.552 0 1 0.448 1 1s-0.448 1-1 1h-22c-0.552 0-1-0.448-1-1zM4 16c0-0.552 0.448-1 1-1h22c0.552 0 1 0.448 1 1s-0.448 1-1 1h-22c-0.552 0-1-0.448-1-1zM15 23c0-0.552 0.448-1 1-1h11c0.552 0 1 0.448 1 1s-0.448 1-1 1h-11c-0.552 0-1-0.448-1-1z"></path>
</symbol>
  </defs>
</svg>
